<mxfile host="app.diagrams.net" agent="Mozilla/5.0 (Macintosh; Intel Mac OS X 10_15_7) AppleWebKit/537.36 (KHTML, like Gecko) Chrome/135.0.0.0 Safari/537.36" version="26.2.13">
  <diagram name="Page-1" id="ISP--SnWFNsFE30LgpHt">
    <mxGraphModel dx="3010" dy="1395" grid="1" gridSize="10" guides="1" tooltips="1" connect="1" arrows="1" fold="1" page="1" pageScale="1" pageWidth="850" pageHeight="1100" math="0" shadow="0">
      <root>
        <mxCell id="0" />
        <mxCell id="1" parent="0" />
        <mxCell id="fogrFWhjLAAxcr_gR0iF-1" value="User" style="shape=umlActor;verticalLabelPosition=bottom;verticalAlign=top;html=1;outlineConnect=0;" vertex="1" parent="1">
          <mxGeometry x="250" y="495" width="60" height="100" as="geometry" />
        </mxCell>
        <mxCell id="fogrFWhjLAAxcr_gR0iF-3" value="Search medicine" style="ellipse;whiteSpace=wrap;html=1;" vertex="1" parent="1">
          <mxGeometry x="458" y="425" width="120" height="80" as="geometry" />
        </mxCell>
        <mxCell id="fogrFWhjLAAxcr_gR0iF-6" value="" style="endArrow=classic;html=1;rounded=0;" edge="1" parent="1">
          <mxGeometry width="50" height="50" relative="1" as="geometry">
            <mxPoint x="308" y="535" as="sourcePoint" />
            <mxPoint x="448" y="465" as="targetPoint" />
          </mxGeometry>
        </mxCell>
        <mxCell id="fogrFWhjLAAxcr_gR0iF-7" value="Scheduling&lt;div&gt;medicines&lt;/div&gt;" style="ellipse;whiteSpace=wrap;html=1;" vertex="1" parent="1">
          <mxGeometry x="-30" y="830" width="120" height="80" as="geometry" />
        </mxCell>
        <mxCell id="fogrFWhjLAAxcr_gR0iF-9" value="View maps" style="ellipse;whiteSpace=wrap;html=1;" vertex="1" parent="1">
          <mxGeometry x="458" y="550" width="120" height="80" as="geometry" />
        </mxCell>
        <mxCell id="fogrFWhjLAAxcr_gR0iF-10" value="" style="endArrow=classic;html=1;rounded=0;" edge="1" parent="1">
          <mxGeometry width="50" height="50" relative="1" as="geometry">
            <mxPoint x="308" y="565" as="sourcePoint" />
            <mxPoint x="448" y="580" as="targetPoint" />
          </mxGeometry>
        </mxCell>
        <mxCell id="fogrFWhjLAAxcr_gR0iF-11" value="Admin" style="shape=umlActor;verticalLabelPosition=bottom;verticalAlign=top;html=1;outlineConnect=0;" vertex="1" parent="1">
          <mxGeometry x="-640" y="460" width="60" height="100" as="geometry" />
        </mxCell>
        <mxCell id="fogrFWhjLAAxcr_gR0iF-12" value="View search history" style="ellipse;whiteSpace=wrap;html=1;" vertex="1" parent="1">
          <mxGeometry x="458" y="315" width="120" height="80" as="geometry" />
        </mxCell>
        <mxCell id="fogrFWhjLAAxcr_gR0iF-13" value="" style="endArrow=classic;html=1;rounded=0;" edge="1" parent="1">
          <mxGeometry width="50" height="50" relative="1" as="geometry">
            <mxPoint x="308" y="515" as="sourcePoint" />
            <mxPoint x="448" y="375" as="targetPoint" />
          </mxGeometry>
        </mxCell>
        <mxCell id="fogrFWhjLAAxcr_gR0iF-14" value="View pharmacy&lt;div&gt;status&lt;/div&gt;" style="ellipse;whiteSpace=wrap;html=1;" vertex="1" parent="1">
          <mxGeometry x="458" y="660" width="120" height="80" as="geometry" />
        </mxCell>
        <mxCell id="fogrFWhjLAAxcr_gR0iF-15" value="" style="endArrow=classic;html=1;rounded=0;" edge="1" parent="1">
          <mxGeometry width="50" height="50" relative="1" as="geometry">
            <mxPoint x="308" y="575" as="sourcePoint" />
            <mxPoint x="450" y="690" as="targetPoint" />
          </mxGeometry>
        </mxCell>
        <mxCell id="fogrFWhjLAAxcr_gR0iF-16" value="Pharmacist" style="shape=umlActor;verticalLabelPosition=bottom;verticalAlign=top;html=1;outlineConnect=0;" vertex="1" parent="1">
          <mxGeometry x="-216" y="520" width="60" height="100" as="geometry" />
        </mxCell>
        <mxCell id="fogrFWhjLAAxcr_gR0iF-17" value="Remove pharmacy" style="ellipse;whiteSpace=wrap;html=1;" vertex="1" parent="1">
          <mxGeometry x="-420" y="420" width="120" height="80" as="geometry" />
        </mxCell>
        <mxCell id="fogrFWhjLAAxcr_gR0iF-18" value="" style="endArrow=classic;html=1;rounded=0;" edge="1" parent="1">
          <mxGeometry width="50" height="50" relative="1" as="geometry">
            <mxPoint x="-570" y="530" as="sourcePoint" />
            <mxPoint x="-430" y="460" as="targetPoint" />
          </mxGeometry>
        </mxCell>
        <mxCell id="fogrFWhjLAAxcr_gR0iF-19" value="List pharmacys" style="ellipse;whiteSpace=wrap;html=1;" vertex="1" parent="1">
          <mxGeometry x="-420" y="530" width="120" height="80" as="geometry" />
        </mxCell>
        <mxCell id="fogrFWhjLAAxcr_gR0iF-20" value="" style="endArrow=classic;html=1;rounded=0;" edge="1" parent="1">
          <mxGeometry width="50" height="50" relative="1" as="geometry">
            <mxPoint x="-570" y="550" as="sourcePoint" />
            <mxPoint x="-430" y="550" as="targetPoint" />
          </mxGeometry>
        </mxCell>
        <mxCell id="fogrFWhjLAAxcr_gR0iF-21" value="Update pharmacy data" style="ellipse;whiteSpace=wrap;html=1;" vertex="1" parent="1">
          <mxGeometry x="-420" y="640" width="120" height="80" as="geometry" />
        </mxCell>
        <mxCell id="fogrFWhjLAAxcr_gR0iF-22" value="" style="endArrow=classic;html=1;rounded=0;" edge="1" parent="1">
          <mxGeometry width="50" height="50" relative="1" as="geometry">
            <mxPoint x="-570" y="560" as="sourcePoint" />
            <mxPoint x="-430" y="650" as="targetPoint" />
          </mxGeometry>
        </mxCell>
        <mxCell id="fogrFWhjLAAxcr_gR0iF-23" value="Regist pharmacys" style="ellipse;whiteSpace=wrap;html=1;" vertex="1" parent="1">
          <mxGeometry x="-420" y="310" width="120" height="80" as="geometry" />
        </mxCell>
        <mxCell id="fogrFWhjLAAxcr_gR0iF-24" value="" style="endArrow=classic;html=1;rounded=0;" edge="1" parent="1">
          <mxGeometry width="50" height="50" relative="1" as="geometry">
            <mxPoint x="-570" y="510" as="sourcePoint" />
            <mxPoint x="-430" y="370" as="targetPoint" />
          </mxGeometry>
        </mxCell>
        <mxCell id="fogrFWhjLAAxcr_gR0iF-30" value="Upload images" style="ellipse;whiteSpace=wrap;html=1;" vertex="1" parent="1">
          <mxGeometry x="-20" y="415" width="120" height="80" as="geometry" />
        </mxCell>
        <mxCell id="fogrFWhjLAAxcr_gR0iF-31" value="" style="endArrow=classic;html=1;rounded=0;" edge="1" parent="1">
          <mxGeometry width="50" height="50" relative="1" as="geometry">
            <mxPoint x="-140" y="560" as="sourcePoint" />
            <mxPoint x="-30" y="460" as="targetPoint" />
          </mxGeometry>
        </mxCell>
        <mxCell id="fogrFWhjLAAxcr_gR0iF-32" value="Manage pharmacy&amp;nbsp;&lt;div&gt;info&lt;/div&gt;" style="ellipse;whiteSpace=wrap;html=1;" vertex="1" parent="1">
          <mxGeometry x="-30" y="520" width="120" height="80" as="geometry" />
        </mxCell>
        <mxCell id="fogrFWhjLAAxcr_gR0iF-33" value="" style="endArrow=classic;html=1;rounded=0;" edge="1" parent="1">
          <mxGeometry width="50" height="50" relative="1" as="geometry">
            <mxPoint x="-140" y="580" as="sourcePoint" />
            <mxPoint x="-40" y="580" as="targetPoint" />
          </mxGeometry>
        </mxCell>
        <mxCell id="fogrFWhjLAAxcr_gR0iF-34" value="Authentication" style="ellipse;whiteSpace=wrap;html=1;" vertex="1" parent="1">
          <mxGeometry x="-30" y="620" width="120" height="80" as="geometry" />
        </mxCell>
        <mxCell id="fogrFWhjLAAxcr_gR0iF-35" value="" style="endArrow=classic;html=1;rounded=0;" edge="1" parent="1">
          <mxGeometry width="50" height="50" relative="1" as="geometry">
            <mxPoint x="-130" y="590" as="sourcePoint" />
            <mxPoint x="-40" y="680" as="targetPoint" />
          </mxGeometry>
        </mxCell>
        <mxCell id="fogrFWhjLAAxcr_gR0iF-36" value="Manage stock" style="ellipse;whiteSpace=wrap;html=1;" vertex="1" parent="1">
          <mxGeometry x="-20" y="300" width="120" height="80" as="geometry" />
        </mxCell>
        <mxCell id="fogrFWhjLAAxcr_gR0iF-37" value="" style="endArrow=classic;html=1;rounded=0;" edge="1" parent="1" source="fogrFWhjLAAxcr_gR0iF-16">
          <mxGeometry width="50" height="50" relative="1" as="geometry">
            <mxPoint x="-110" y="490" as="sourcePoint" />
            <mxPoint x="-30" y="360" as="targetPoint" />
          </mxGeometry>
        </mxCell>
        <mxCell id="fogrFWhjLAAxcr_gR0iF-39" value="Authentication" style="ellipse;whiteSpace=wrap;html=1;" vertex="1" parent="1">
          <mxGeometry x="-450" y="740" width="120" height="80" as="geometry" />
        </mxCell>
        <mxCell id="fogrFWhjLAAxcr_gR0iF-40" value="" style="endArrow=classic;html=1;rounded=0;" edge="1" parent="1">
          <mxGeometry width="50" height="50" relative="1" as="geometry">
            <mxPoint x="-570" y="585" as="sourcePoint" />
            <mxPoint x="-456.5030799724093" y="739.1138420249367" as="targetPoint" />
          </mxGeometry>
        </mxCell>
        <mxCell id="fogrFWhjLAAxcr_gR0iF-42" value="Cancel scheduling&lt;div&gt;medicine&lt;/div&gt;" style="ellipse;whiteSpace=wrap;html=1;" vertex="1" parent="1">
          <mxGeometry x="-40" y="720" width="120" height="80" as="geometry" />
        </mxCell>
        <mxCell id="fogrFWhjLAAxcr_gR0iF-43" value="" style="endArrow=classic;html=1;rounded=0;" edge="1" parent="1">
          <mxGeometry width="50" height="50" relative="1" as="geometry">
            <mxPoint x="-140" y="600" as="sourcePoint" />
            <mxPoint x="-50" y="780" as="targetPoint" />
          </mxGeometry>
        </mxCell>
        <mxCell id="fogrFWhjLAAxcr_gR0iF-44" value="" style="endArrow=none;html=1;rounded=0;" edge="1" parent="1">
          <mxGeometry width="50" height="50" relative="1" as="geometry">
            <mxPoint x="90" y="750" as="sourcePoint" />
            <mxPoint x="240" y="560" as="targetPoint" />
          </mxGeometry>
        </mxCell>
        <mxCell id="fogrFWhjLAAxcr_gR0iF-45" value="" style="endArrow=classic;html=1;rounded=0;" edge="1" parent="1">
          <mxGeometry width="50" height="50" relative="1" as="geometry">
            <mxPoint x="240" y="580" as="sourcePoint" />
            <mxPoint x="100" y="860" as="targetPoint" />
          </mxGeometry>
        </mxCell>
        <mxCell id="fogrFWhjLAAxcr_gR0iF-46" value="" style="endArrow=none;html=1;rounded=0;" edge="1" parent="1">
          <mxGeometry width="50" height="50" relative="1" as="geometry">
            <mxPoint x="-40" y="850" as="sourcePoint" />
            <mxPoint x="-150" y="620" as="targetPoint" />
          </mxGeometry>
        </mxCell>
      </root>
    </mxGraphModel>
  </diagram>
</mxfile>
